G04 EAGLE Gerber RS-274X export*
G75*
%MOMM*%
%FSLAX34Y34*%
%LPD*%
%INTop Copper*%
%IPPOS*%
%AMOC8*
5,1,8,0,0,1.08239X$1,22.5*%
G01*
%ADD10R,3.900000X3.900000*%
%ADD11R,3.200000X3.200000*%
%ADD12R,1.300000X1.500000*%
%ADD13R,2.032000X0.660400*%
%ADD14R,1.200000X1.200000*%
%ADD15C,0.152400*%
%ADD16C,0.756400*%

G36*
X229098Y10164D02*
X229098Y10164D01*
X229117Y10162D01*
X229219Y10184D01*
X229321Y10200D01*
X229338Y10210D01*
X229358Y10214D01*
X229447Y10267D01*
X229538Y10316D01*
X229552Y10330D01*
X229569Y10340D01*
X229636Y10419D01*
X229708Y10494D01*
X229716Y10512D01*
X229729Y10527D01*
X229768Y10623D01*
X229811Y10717D01*
X229813Y10737D01*
X229821Y10755D01*
X229839Y10922D01*
X229839Y309078D01*
X229836Y309098D01*
X229838Y309117D01*
X229816Y309219D01*
X229800Y309321D01*
X229790Y309338D01*
X229786Y309358D01*
X229733Y309447D01*
X229684Y309538D01*
X229670Y309552D01*
X229660Y309569D01*
X229581Y309636D01*
X229506Y309708D01*
X229488Y309716D01*
X229473Y309729D01*
X229377Y309768D01*
X229283Y309811D01*
X229263Y309813D01*
X229245Y309821D01*
X229078Y309839D01*
X10922Y309839D01*
X10902Y309836D01*
X10883Y309838D01*
X10781Y309816D01*
X10679Y309800D01*
X10662Y309790D01*
X10642Y309786D01*
X10553Y309733D01*
X10462Y309684D01*
X10448Y309670D01*
X10431Y309660D01*
X10364Y309581D01*
X10292Y309506D01*
X10284Y309488D01*
X10271Y309473D01*
X10232Y309377D01*
X10189Y309283D01*
X10187Y309263D01*
X10179Y309245D01*
X10161Y309078D01*
X10161Y10922D01*
X10164Y10902D01*
X10162Y10883D01*
X10184Y10781D01*
X10200Y10679D01*
X10210Y10662D01*
X10214Y10642D01*
X10267Y10553D01*
X10316Y10462D01*
X10330Y10448D01*
X10340Y10431D01*
X10419Y10364D01*
X10494Y10292D01*
X10512Y10284D01*
X10527Y10271D01*
X10623Y10232D01*
X10717Y10189D01*
X10737Y10187D01*
X10755Y10179D01*
X10922Y10161D01*
X229078Y10161D01*
X229098Y10164D01*
G37*
%LPC*%
G36*
X99637Y64769D02*
X99637Y64769D01*
X98074Y66332D01*
X77000Y87406D01*
X76926Y87459D01*
X76856Y87519D01*
X76826Y87531D01*
X76800Y87550D01*
X76713Y87577D01*
X76628Y87611D01*
X76587Y87615D01*
X76565Y87622D01*
X76533Y87621D01*
X76461Y87629D01*
X56286Y87629D01*
X56266Y87626D01*
X56247Y87628D01*
X56145Y87606D01*
X56043Y87590D01*
X56026Y87580D01*
X56006Y87576D01*
X55917Y87523D01*
X55826Y87474D01*
X55812Y87460D01*
X55795Y87450D01*
X55728Y87371D01*
X55656Y87296D01*
X55648Y87278D01*
X55635Y87263D01*
X55596Y87167D01*
X55553Y87073D01*
X55551Y87053D01*
X55543Y87035D01*
X55525Y86868D01*
X55525Y73368D01*
X54632Y72475D01*
X21368Y72475D01*
X20475Y73368D01*
X20475Y103992D01*
X20461Y104082D01*
X20453Y104173D01*
X20441Y104202D01*
X20436Y104234D01*
X20393Y104315D01*
X20357Y104399D01*
X20331Y104431D01*
X20320Y104452D01*
X20297Y104474D01*
X20252Y104530D01*
X12953Y111829D01*
X12953Y232595D01*
X26446Y246088D01*
X26499Y246162D01*
X26559Y246232D01*
X26571Y246262D01*
X26590Y246288D01*
X26617Y246375D01*
X26651Y246460D01*
X26655Y246501D01*
X26662Y246523D01*
X26661Y246555D01*
X26669Y246627D01*
X26669Y271714D01*
X26666Y271734D01*
X26668Y271753D01*
X26646Y271855D01*
X26630Y271957D01*
X26620Y271974D01*
X26616Y271994D01*
X26563Y272083D01*
X26514Y272174D01*
X26500Y272188D01*
X26490Y272205D01*
X26411Y272272D01*
X26336Y272344D01*
X26318Y272352D01*
X26303Y272365D01*
X26207Y272404D01*
X26113Y272447D01*
X26093Y272449D01*
X26075Y272457D01*
X25908Y272475D01*
X22868Y272475D01*
X21975Y273368D01*
X21975Y286632D01*
X22868Y287525D01*
X36132Y287525D01*
X37025Y286632D01*
X37025Y273368D01*
X36132Y272475D01*
X32004Y272475D01*
X31984Y272472D01*
X31965Y272474D01*
X31863Y272452D01*
X31761Y272436D01*
X31744Y272426D01*
X31724Y272422D01*
X31635Y272369D01*
X31544Y272320D01*
X31530Y272306D01*
X31513Y272296D01*
X31446Y272217D01*
X31374Y272142D01*
X31366Y272124D01*
X31353Y272109D01*
X31314Y272013D01*
X31271Y271919D01*
X31269Y271899D01*
X31261Y271881D01*
X31243Y271714D01*
X31243Y244417D01*
X17750Y230924D01*
X17697Y230850D01*
X17637Y230780D01*
X17625Y230750D01*
X17606Y230724D01*
X17579Y230637D01*
X17545Y230552D01*
X17541Y230511D01*
X17534Y230489D01*
X17535Y230457D01*
X17527Y230385D01*
X17527Y114039D01*
X17541Y113948D01*
X17549Y113858D01*
X17561Y113828D01*
X17566Y113796D01*
X17609Y113715D01*
X17645Y113631D01*
X17671Y113599D01*
X17682Y113578D01*
X17705Y113556D01*
X17750Y113500D01*
X23502Y107748D01*
X23576Y107695D01*
X23646Y107635D01*
X23676Y107623D01*
X23702Y107604D01*
X23789Y107577D01*
X23874Y107543D01*
X23915Y107539D01*
X23937Y107532D01*
X23969Y107533D01*
X24040Y107525D01*
X54632Y107525D01*
X55525Y106632D01*
X55525Y92964D01*
X55528Y92944D01*
X55526Y92925D01*
X55548Y92823D01*
X55564Y92721D01*
X55574Y92704D01*
X55578Y92684D01*
X55631Y92595D01*
X55680Y92504D01*
X55694Y92490D01*
X55704Y92473D01*
X55783Y92406D01*
X55858Y92334D01*
X55876Y92326D01*
X55891Y92313D01*
X55987Y92274D01*
X56081Y92231D01*
X56101Y92229D01*
X56119Y92221D01*
X56286Y92203D01*
X78671Y92203D01*
X96660Y74214D01*
X96718Y74172D01*
X96770Y74123D01*
X96817Y74101D01*
X96859Y74071D01*
X96928Y74050D01*
X96993Y74019D01*
X97045Y74014D01*
X97095Y73998D01*
X97166Y74000D01*
X97237Y73992D01*
X97288Y74003D01*
X97340Y74005D01*
X97408Y74029D01*
X97478Y74044D01*
X97523Y74071D01*
X97571Y74089D01*
X97627Y74134D01*
X97689Y74171D01*
X97723Y74210D01*
X97763Y74243D01*
X97802Y74303D01*
X97849Y74358D01*
X97868Y74406D01*
X97896Y74450D01*
X97914Y74519D01*
X97941Y74586D01*
X97949Y74657D01*
X97957Y74688D01*
X97955Y74712D01*
X97959Y74752D01*
X97959Y88477D01*
X119238Y88477D01*
X119258Y88480D01*
X119277Y88478D01*
X119379Y88500D01*
X119481Y88517D01*
X119498Y88526D01*
X119518Y88530D01*
X119607Y88583D01*
X119698Y88632D01*
X119712Y88646D01*
X119729Y88656D01*
X119796Y88735D01*
X119867Y88810D01*
X119876Y88828D01*
X119889Y88843D01*
X119928Y88939D01*
X119971Y89033D01*
X119973Y89053D01*
X119981Y89071D01*
X119999Y89238D01*
X119999Y90001D01*
X120001Y90001D01*
X120001Y89238D01*
X120004Y89218D01*
X120002Y89199D01*
X120024Y89097D01*
X120041Y88995D01*
X120050Y88978D01*
X120054Y88958D01*
X120107Y88869D01*
X120156Y88778D01*
X120170Y88764D01*
X120180Y88747D01*
X120259Y88680D01*
X120334Y88609D01*
X120352Y88600D01*
X120367Y88587D01*
X120463Y88548D01*
X120557Y88505D01*
X120577Y88503D01*
X120595Y88495D01*
X120762Y88477D01*
X142041Y88477D01*
X142041Y70104D01*
X142044Y70084D01*
X142042Y70065D01*
X142064Y69963D01*
X142080Y69861D01*
X142090Y69844D01*
X142094Y69824D01*
X142147Y69735D01*
X142196Y69644D01*
X142210Y69630D01*
X142220Y69613D01*
X142299Y69546D01*
X142374Y69474D01*
X142392Y69466D01*
X142407Y69453D01*
X142503Y69414D01*
X142597Y69371D01*
X142617Y69369D01*
X142635Y69361D01*
X142802Y69343D01*
X177045Y69343D01*
X177136Y69357D01*
X177226Y69365D01*
X177256Y69377D01*
X177288Y69382D01*
X177369Y69425D01*
X177453Y69461D01*
X177485Y69487D01*
X177506Y69498D01*
X177528Y69521D01*
X177584Y69566D01*
X184252Y76234D01*
X184305Y76308D01*
X184365Y76378D01*
X184377Y76408D01*
X184396Y76434D01*
X184423Y76521D01*
X184457Y76606D01*
X184461Y76647D01*
X184468Y76669D01*
X184467Y76701D01*
X184475Y76772D01*
X184475Y106632D01*
X185368Y107525D01*
X215227Y107525D01*
X215318Y107539D01*
X215408Y107547D01*
X215438Y107559D01*
X215470Y107564D01*
X215551Y107607D01*
X215635Y107643D01*
X215667Y107669D01*
X215688Y107680D01*
X215710Y107703D01*
X215766Y107748D01*
X216946Y108928D01*
X216999Y109002D01*
X217059Y109072D01*
X217071Y109102D01*
X217090Y109128D01*
X217117Y109215D01*
X217151Y109300D01*
X217155Y109341D01*
X217162Y109363D01*
X217161Y109395D01*
X217169Y109467D01*
X217169Y169198D01*
X217166Y169218D01*
X217168Y169237D01*
X217146Y169339D01*
X217130Y169441D01*
X217120Y169458D01*
X217116Y169478D01*
X217063Y169567D01*
X217014Y169658D01*
X217000Y169672D01*
X216990Y169689D01*
X216911Y169756D01*
X216836Y169828D01*
X216818Y169836D01*
X216803Y169849D01*
X216707Y169888D01*
X216613Y169931D01*
X216593Y169933D01*
X216575Y169941D01*
X216408Y169959D01*
X211023Y169959D01*
X211023Y179238D01*
X211020Y179258D01*
X211022Y179277D01*
X211000Y179379D01*
X210983Y179481D01*
X210974Y179498D01*
X210970Y179518D01*
X210917Y179607D01*
X210868Y179698D01*
X210854Y179712D01*
X210844Y179729D01*
X210765Y179796D01*
X210690Y179867D01*
X210672Y179876D01*
X210657Y179889D01*
X210561Y179928D01*
X210467Y179971D01*
X210447Y179973D01*
X210429Y179981D01*
X210262Y179999D01*
X209499Y179999D01*
X209499Y180001D01*
X210262Y180001D01*
X210282Y180004D01*
X210301Y180002D01*
X210403Y180024D01*
X210505Y180041D01*
X210522Y180050D01*
X210542Y180054D01*
X210631Y180107D01*
X210722Y180156D01*
X210736Y180170D01*
X210753Y180180D01*
X210820Y180259D01*
X210891Y180334D01*
X210900Y180352D01*
X210913Y180367D01*
X210952Y180463D01*
X210995Y180557D01*
X210997Y180577D01*
X211005Y180595D01*
X211023Y180762D01*
X211023Y190041D01*
X216408Y190041D01*
X216428Y190044D01*
X216447Y190042D01*
X216549Y190064D01*
X216651Y190080D01*
X216668Y190090D01*
X216688Y190094D01*
X216777Y190147D01*
X216868Y190196D01*
X216882Y190210D01*
X216899Y190220D01*
X216966Y190299D01*
X217038Y190374D01*
X217046Y190392D01*
X217059Y190407D01*
X217098Y190503D01*
X217141Y190597D01*
X217143Y190617D01*
X217151Y190635D01*
X217169Y190802D01*
X217169Y210214D01*
X217166Y210234D01*
X217168Y210253D01*
X217146Y210355D01*
X217130Y210457D01*
X217120Y210474D01*
X217116Y210494D01*
X217063Y210583D01*
X217014Y210674D01*
X217000Y210688D01*
X216990Y210705D01*
X216911Y210772D01*
X216836Y210844D01*
X216818Y210852D01*
X216803Y210865D01*
X216707Y210904D01*
X216613Y210947D01*
X216593Y210949D01*
X216575Y210957D01*
X216408Y210975D01*
X211836Y210975D01*
X211816Y210972D01*
X211797Y210974D01*
X211695Y210952D01*
X211593Y210936D01*
X211576Y210926D01*
X211556Y210922D01*
X211467Y210869D01*
X211376Y210820D01*
X211362Y210806D01*
X211345Y210796D01*
X211278Y210717D01*
X211206Y210642D01*
X211198Y210624D01*
X211185Y210609D01*
X211146Y210513D01*
X211103Y210419D01*
X211101Y210399D01*
X211093Y210381D01*
X211075Y210214D01*
X211075Y198697D01*
X203718Y191340D01*
X203676Y191282D01*
X203627Y191230D01*
X203605Y191183D01*
X203575Y191141D01*
X203554Y191072D01*
X203523Y191007D01*
X203518Y190955D01*
X203502Y190905D01*
X203504Y190834D01*
X203496Y190763D01*
X203507Y190712D01*
X203509Y190660D01*
X203533Y190592D01*
X203548Y190522D01*
X203575Y190477D01*
X203593Y190429D01*
X203638Y190373D01*
X203675Y190311D01*
X203714Y190277D01*
X203747Y190237D01*
X203807Y190198D01*
X203862Y190151D01*
X203910Y190132D01*
X203954Y190104D01*
X204023Y190086D01*
X204090Y190059D01*
X204161Y190051D01*
X204192Y190043D01*
X204216Y190045D01*
X204256Y190041D01*
X207977Y190041D01*
X207977Y181523D01*
X200459Y181523D01*
X200459Y186244D01*
X200448Y186314D01*
X200446Y186386D01*
X200428Y186435D01*
X200420Y186486D01*
X200386Y186550D01*
X200361Y186617D01*
X200329Y186658D01*
X200304Y186704D01*
X200253Y186753D01*
X200208Y186809D01*
X200164Y186837D01*
X200126Y186873D01*
X200061Y186903D01*
X200001Y186942D01*
X199950Y186955D01*
X199903Y186977D01*
X199832Y186985D01*
X199762Y187002D01*
X199710Y186998D01*
X199659Y187004D01*
X199588Y186989D01*
X199517Y186983D01*
X199469Y186963D01*
X199418Y186952D01*
X199357Y186915D01*
X199291Y186887D01*
X199235Y186842D01*
X199207Y186825D01*
X199192Y186808D01*
X199160Y186782D01*
X198748Y186370D01*
X198694Y186296D01*
X198635Y186226D01*
X198623Y186196D01*
X198604Y186170D01*
X198577Y186083D01*
X198543Y185998D01*
X198539Y185957D01*
X198532Y185935D01*
X198533Y185903D01*
X198525Y185831D01*
X198525Y171868D01*
X197632Y170975D01*
X183368Y170975D01*
X182475Y171868D01*
X182475Y178308D01*
X182472Y178328D01*
X182474Y178347D01*
X182452Y178449D01*
X182436Y178551D01*
X182426Y178568D01*
X182422Y178588D01*
X182369Y178677D01*
X182320Y178768D01*
X182306Y178782D01*
X182296Y178799D01*
X182217Y178866D01*
X182142Y178938D01*
X182124Y178946D01*
X182109Y178959D01*
X182013Y178998D01*
X181919Y179041D01*
X181899Y179043D01*
X181881Y179051D01*
X181714Y179069D01*
X166693Y179069D01*
X164912Y180850D01*
X164838Y180903D01*
X164768Y180963D01*
X164738Y180975D01*
X164712Y180994D01*
X164625Y181021D01*
X164540Y181055D01*
X164499Y181059D01*
X164477Y181066D01*
X164445Y181065D01*
X164374Y181073D01*
X153057Y181073D01*
X153057Y185393D01*
X158532Y185393D01*
X158602Y185404D01*
X158674Y185406D01*
X158723Y185424D01*
X158774Y185432D01*
X158838Y185466D01*
X158905Y185491D01*
X158946Y185523D01*
X158992Y185548D01*
X159041Y185599D01*
X159097Y185644D01*
X159125Y185688D01*
X159161Y185726D01*
X159191Y185791D01*
X159230Y185851D01*
X159243Y185902D01*
X159265Y185949D01*
X159273Y186020D01*
X159290Y186090D01*
X159286Y186142D01*
X159292Y186193D01*
X159277Y186264D01*
X159271Y186335D01*
X159251Y186383D01*
X159240Y186434D01*
X159203Y186495D01*
X159175Y186561D01*
X159130Y186617D01*
X159113Y186645D01*
X159096Y186660D01*
X159070Y186692D01*
X158562Y187200D01*
X158488Y187253D01*
X158418Y187313D01*
X158388Y187325D01*
X158362Y187344D01*
X158275Y187371D01*
X158190Y187405D01*
X158149Y187409D01*
X158127Y187416D01*
X158095Y187415D01*
X158024Y187423D01*
X140742Y187423D01*
X139849Y188316D01*
X139849Y190500D01*
X139846Y190520D01*
X139848Y190539D01*
X139826Y190641D01*
X139810Y190743D01*
X139800Y190760D01*
X139796Y190780D01*
X139743Y190869D01*
X139694Y190960D01*
X139680Y190974D01*
X139670Y190991D01*
X139591Y191058D01*
X139516Y191130D01*
X139498Y191138D01*
X139483Y191151D01*
X139387Y191190D01*
X139293Y191233D01*
X139273Y191235D01*
X139255Y191243D01*
X139088Y191261D01*
X137737Y191261D01*
X127292Y201706D01*
X127218Y201759D01*
X127148Y201819D01*
X127118Y201831D01*
X127092Y201850D01*
X127005Y201877D01*
X126920Y201911D01*
X126879Y201915D01*
X126857Y201922D01*
X126825Y201921D01*
X126753Y201929D01*
X102512Y201929D01*
X102492Y201926D01*
X102473Y201928D01*
X102371Y201906D01*
X102269Y201890D01*
X102252Y201880D01*
X102232Y201876D01*
X102143Y201823D01*
X102052Y201774D01*
X102038Y201760D01*
X102021Y201750D01*
X101954Y201671D01*
X101882Y201596D01*
X101874Y201578D01*
X101861Y201563D01*
X101822Y201467D01*
X101779Y201373D01*
X101777Y201353D01*
X101769Y201335D01*
X101751Y201168D01*
X101751Y201016D01*
X100858Y200123D01*
X82316Y200123D01*
X82246Y200112D01*
X82174Y200110D01*
X82125Y200092D01*
X82074Y200084D01*
X82010Y200050D01*
X81943Y200025D01*
X81902Y199993D01*
X81856Y199968D01*
X81807Y199917D01*
X81751Y199872D01*
X81723Y199828D01*
X81687Y199790D01*
X81657Y199725D01*
X81618Y199665D01*
X81605Y199614D01*
X81583Y199567D01*
X81575Y199496D01*
X81558Y199426D01*
X81562Y199374D01*
X81556Y199323D01*
X81571Y199252D01*
X81577Y199181D01*
X81597Y199133D01*
X81608Y199082D01*
X81645Y199021D01*
X81673Y198955D01*
X81718Y198899D01*
X81735Y198871D01*
X81752Y198856D01*
X81778Y198824D01*
X83302Y197300D01*
X83376Y197247D01*
X83446Y197187D01*
X83476Y197175D01*
X83502Y197156D01*
X83589Y197129D01*
X83674Y197095D01*
X83715Y197091D01*
X83737Y197084D01*
X83769Y197085D01*
X83840Y197077D01*
X100858Y197077D01*
X101751Y196184D01*
X101751Y188316D01*
X100858Y187423D01*
X84292Y187423D01*
X84202Y187409D01*
X84111Y187401D01*
X84082Y187389D01*
X84050Y187384D01*
X83969Y187341D01*
X83885Y187305D01*
X83853Y187279D01*
X83832Y187268D01*
X83810Y187245D01*
X83754Y187200D01*
X82230Y185676D01*
X82188Y185618D01*
X82139Y185566D01*
X82117Y185519D01*
X82087Y185477D01*
X82066Y185408D01*
X82035Y185343D01*
X82030Y185291D01*
X82014Y185241D01*
X82016Y185170D01*
X82008Y185099D01*
X82019Y185048D01*
X82021Y184996D01*
X82045Y184928D01*
X82060Y184858D01*
X82087Y184814D01*
X82105Y184765D01*
X82150Y184709D01*
X82187Y184647D01*
X82226Y184613D01*
X82259Y184573D01*
X82319Y184534D01*
X82374Y184487D01*
X82422Y184468D01*
X82466Y184440D01*
X82535Y184422D01*
X82602Y184395D01*
X82673Y184387D01*
X82704Y184379D01*
X82728Y184381D01*
X82768Y184377D01*
X100858Y184377D01*
X101751Y183484D01*
X101751Y175616D01*
X100858Y174723D01*
X89880Y174723D01*
X89790Y174709D01*
X89699Y174701D01*
X89670Y174689D01*
X89638Y174684D01*
X89557Y174641D01*
X89473Y174605D01*
X89441Y174579D01*
X89420Y174568D01*
X89398Y174545D01*
X89342Y174500D01*
X81719Y166877D01*
X41725Y166877D01*
X37850Y170752D01*
X37776Y170805D01*
X37706Y170865D01*
X37676Y170877D01*
X37650Y170896D01*
X37563Y170923D01*
X37478Y170957D01*
X37437Y170961D01*
X37415Y170968D01*
X37383Y170967D01*
X37311Y170975D01*
X23368Y170975D01*
X22475Y171868D01*
X22475Y188132D01*
X23368Y189025D01*
X27432Y189025D01*
X27452Y189028D01*
X27471Y189026D01*
X27573Y189048D01*
X27675Y189064D01*
X27692Y189074D01*
X27712Y189078D01*
X27801Y189131D01*
X27892Y189180D01*
X27906Y189194D01*
X27923Y189204D01*
X27990Y189283D01*
X28062Y189358D01*
X28070Y189376D01*
X28083Y189391D01*
X28122Y189487D01*
X28165Y189581D01*
X28167Y189601D01*
X28175Y189619D01*
X28193Y189786D01*
X28193Y201429D01*
X28179Y201520D01*
X28171Y201610D01*
X28159Y201640D01*
X28154Y201672D01*
X28111Y201753D01*
X28075Y201837D01*
X28049Y201869D01*
X28038Y201890D01*
X28015Y201912D01*
X27970Y201968D01*
X19049Y210889D01*
X19049Y229547D01*
X21913Y232411D01*
X39047Y232411D01*
X40348Y231110D01*
X41370Y230088D01*
X41425Y230048D01*
X41474Y230001D01*
X41524Y229977D01*
X41570Y229944D01*
X41634Y229924D01*
X41696Y229895D01*
X41751Y229888D01*
X41805Y229872D01*
X41873Y229874D01*
X41940Y229865D01*
X42018Y229877D01*
X42051Y229878D01*
X42070Y229885D01*
X42106Y229891D01*
X42666Y230041D01*
X47977Y230041D01*
X47977Y220762D01*
X47980Y220742D01*
X47978Y220723D01*
X48000Y220621D01*
X48017Y220519D01*
X48026Y220502D01*
X48030Y220482D01*
X48083Y220393D01*
X48132Y220302D01*
X48146Y220288D01*
X48156Y220271D01*
X48235Y220204D01*
X48310Y220133D01*
X48328Y220124D01*
X48343Y220111D01*
X48439Y220072D01*
X48533Y220029D01*
X48553Y220027D01*
X48571Y220019D01*
X48738Y220001D01*
X49501Y220001D01*
X49501Y219238D01*
X49504Y219218D01*
X49502Y219199D01*
X49524Y219097D01*
X49541Y218995D01*
X49550Y218978D01*
X49554Y218958D01*
X49607Y218869D01*
X49656Y218778D01*
X49670Y218764D01*
X49680Y218747D01*
X49759Y218680D01*
X49834Y218609D01*
X49852Y218600D01*
X49867Y218587D01*
X49963Y218548D01*
X50057Y218505D01*
X50077Y218503D01*
X50095Y218495D01*
X50262Y218477D01*
X58541Y218477D01*
X58541Y212165D01*
X58505Y212033D01*
X58493Y211914D01*
X58480Y211797D01*
X58481Y211792D01*
X58481Y211788D01*
X58507Y211673D01*
X58533Y211556D01*
X58535Y211553D01*
X58536Y211548D01*
X58598Y211447D01*
X58659Y211345D01*
X58662Y211342D01*
X58664Y211339D01*
X58756Y211262D01*
X58846Y211185D01*
X58850Y211184D01*
X58853Y211181D01*
X58963Y211138D01*
X59074Y211093D01*
X59079Y211093D01*
X59082Y211091D01*
X59095Y211091D01*
X59241Y211075D01*
X62745Y211075D01*
X62836Y211089D01*
X62926Y211097D01*
X62956Y211109D01*
X62988Y211114D01*
X63069Y211157D01*
X63153Y211193D01*
X63185Y211219D01*
X63206Y211230D01*
X63228Y211253D01*
X63284Y211298D01*
X78301Y226315D01*
X145727Y226315D01*
X149342Y222700D01*
X149416Y222647D01*
X149486Y222587D01*
X149516Y222575D01*
X149542Y222556D01*
X149629Y222529D01*
X149714Y222495D01*
X149755Y222491D01*
X149777Y222484D01*
X149809Y222485D01*
X149881Y222477D01*
X162326Y222477D01*
X163228Y221574D01*
X163230Y221560D01*
X163232Y221488D01*
X163250Y221439D01*
X163258Y221388D01*
X163292Y221324D01*
X163317Y221257D01*
X163349Y221216D01*
X163374Y221170D01*
X163426Y221121D01*
X163470Y221065D01*
X163514Y221037D01*
X163552Y221001D01*
X163617Y220971D01*
X163677Y220932D01*
X163728Y220919D01*
X163775Y220897D01*
X163846Y220889D01*
X163916Y220872D01*
X163968Y220876D01*
X164019Y220870D01*
X164090Y220885D01*
X164161Y220891D01*
X164209Y220911D01*
X164260Y220922D01*
X164321Y220959D01*
X164387Y220987D01*
X164443Y221032D01*
X164471Y221049D01*
X164486Y221066D01*
X164518Y221092D01*
X174274Y230848D01*
X175837Y232411D01*
X218879Y232411D01*
X221743Y229547D01*
X221743Y107257D01*
X219748Y105262D01*
X219695Y105188D01*
X219635Y105118D01*
X219623Y105088D01*
X219604Y105062D01*
X219577Y104975D01*
X219543Y104890D01*
X219539Y104849D01*
X219532Y104827D01*
X219533Y104795D01*
X219525Y104723D01*
X219525Y73368D01*
X218632Y72475D01*
X187276Y72475D01*
X187186Y72461D01*
X187095Y72453D01*
X187066Y72441D01*
X187034Y72436D01*
X186953Y72393D01*
X186869Y72357D01*
X186837Y72331D01*
X186816Y72320D01*
X186794Y72297D01*
X186738Y72252D01*
X179255Y64769D01*
X99637Y64769D01*
G37*
%LPD*%
%LPC*%
G36*
X133438Y261393D02*
X133438Y261393D01*
X130329Y264502D01*
X130329Y266700D01*
X130326Y266720D01*
X130328Y266739D01*
X130306Y266841D01*
X130290Y266943D01*
X130280Y266960D01*
X130276Y266980D01*
X130223Y267069D01*
X130174Y267160D01*
X130160Y267174D01*
X130150Y267191D01*
X130071Y267258D01*
X129996Y267330D01*
X129978Y267338D01*
X129963Y267351D01*
X129867Y267390D01*
X129773Y267433D01*
X129753Y267435D01*
X129735Y267443D01*
X129568Y267461D01*
X108781Y267461D01*
X105490Y270752D01*
X105416Y270805D01*
X105346Y270865D01*
X105316Y270877D01*
X105290Y270896D01*
X105203Y270923D01*
X105118Y270957D01*
X105077Y270961D01*
X105055Y270968D01*
X105023Y270967D01*
X104951Y270975D01*
X92368Y270975D01*
X91475Y271868D01*
X91475Y288132D01*
X92368Y289025D01*
X106632Y289025D01*
X107525Y288132D01*
X107525Y275501D01*
X107539Y275410D01*
X107547Y275320D01*
X107559Y275290D01*
X107564Y275258D01*
X107607Y275177D01*
X107643Y275093D01*
X107669Y275061D01*
X107680Y275040D01*
X107703Y275018D01*
X107748Y274962D01*
X110452Y272258D01*
X110526Y272205D01*
X110596Y272145D01*
X110626Y272133D01*
X110652Y272114D01*
X110739Y272087D01*
X110824Y272053D01*
X110865Y272049D01*
X110887Y272042D01*
X110919Y272043D01*
X110991Y272035D01*
X131714Y272035D01*
X131734Y272038D01*
X131753Y272036D01*
X131855Y272058D01*
X131957Y272074D01*
X131974Y272084D01*
X131994Y272088D01*
X132083Y272141D01*
X132174Y272190D01*
X132188Y272204D01*
X132205Y272214D01*
X132272Y272293D01*
X132344Y272368D01*
X132352Y272386D01*
X132365Y272401D01*
X132404Y272497D01*
X132447Y272591D01*
X132449Y272611D01*
X132457Y272629D01*
X132475Y272796D01*
X132475Y288132D01*
X133368Y289025D01*
X142219Y289025D01*
X142310Y289039D01*
X142400Y289047D01*
X142430Y289059D01*
X142462Y289064D01*
X142543Y289107D01*
X142627Y289143D01*
X142659Y289169D01*
X142680Y289180D01*
X142702Y289203D01*
X142758Y289248D01*
X149929Y296419D01*
X192971Y296419D01*
X202329Y287061D01*
X202345Y287050D01*
X202357Y287034D01*
X202444Y286978D01*
X202528Y286918D01*
X202547Y286912D01*
X202564Y286901D01*
X202665Y286876D01*
X202763Y286845D01*
X202783Y286846D01*
X202803Y286841D01*
X202906Y286849D01*
X203009Y286852D01*
X203028Y286859D01*
X203048Y286860D01*
X203143Y286901D01*
X203240Y286936D01*
X203256Y286949D01*
X203274Y286957D01*
X203405Y287061D01*
X203868Y287525D01*
X217132Y287525D01*
X218025Y286632D01*
X218025Y273368D01*
X217132Y272475D01*
X203868Y272475D01*
X202975Y273368D01*
X202975Y279631D01*
X202961Y279722D01*
X202953Y279812D01*
X202941Y279842D01*
X202936Y279874D01*
X202911Y279921D01*
X202910Y279923D01*
X202905Y279931D01*
X202893Y279955D01*
X202857Y280039D01*
X202831Y280071D01*
X202820Y280092D01*
X202797Y280114D01*
X202794Y280118D01*
X202784Y280134D01*
X202774Y280143D01*
X202752Y280170D01*
X198324Y284598D01*
X198266Y284640D01*
X198214Y284689D01*
X198167Y284711D01*
X198125Y284741D01*
X198056Y284762D01*
X197991Y284793D01*
X197939Y284798D01*
X197889Y284814D01*
X197818Y284812D01*
X197747Y284820D01*
X197696Y284809D01*
X197644Y284807D01*
X197576Y284783D01*
X197506Y284768D01*
X197461Y284741D01*
X197413Y284723D01*
X197357Y284678D01*
X197295Y284641D01*
X197261Y284602D01*
X197221Y284569D01*
X197182Y284509D01*
X197135Y284454D01*
X197116Y284406D01*
X197088Y284362D01*
X197070Y284293D01*
X197043Y284226D01*
X197035Y284155D01*
X197027Y284124D01*
X197029Y284100D01*
X197025Y284060D01*
X197025Y273368D01*
X196132Y272475D01*
X182868Y272475D01*
X181975Y273368D01*
X181975Y277368D01*
X181973Y277384D01*
X181974Y277399D01*
X181974Y277402D01*
X181974Y277407D01*
X181952Y277509D01*
X181936Y277611D01*
X181926Y277628D01*
X181922Y277648D01*
X181869Y277737D01*
X181820Y277828D01*
X181806Y277842D01*
X181796Y277859D01*
X181717Y277926D01*
X181642Y277998D01*
X181624Y278006D01*
X181609Y278019D01*
X181513Y278058D01*
X181419Y278101D01*
X181399Y278103D01*
X181381Y278111D01*
X181214Y278129D01*
X175837Y278129D01*
X169840Y284126D01*
X169782Y284168D01*
X169730Y284217D01*
X169683Y284239D01*
X169641Y284269D01*
X169572Y284290D01*
X169507Y284321D01*
X169455Y284326D01*
X169405Y284342D01*
X169334Y284340D01*
X169263Y284348D01*
X169212Y284337D01*
X169160Y284335D01*
X169092Y284311D01*
X169022Y284296D01*
X168977Y284269D01*
X168929Y284251D01*
X168873Y284206D01*
X168811Y284169D01*
X168777Y284130D01*
X168737Y284097D01*
X168698Y284037D01*
X168651Y283982D01*
X168632Y283934D01*
X168604Y283890D01*
X168586Y283821D01*
X168559Y283754D01*
X168551Y283683D01*
X168543Y283652D01*
X168545Y283628D01*
X168541Y283588D01*
X168541Y281523D01*
X160262Y281523D01*
X160242Y281520D01*
X160223Y281522D01*
X160121Y281500D01*
X160019Y281483D01*
X160002Y281474D01*
X159982Y281470D01*
X159893Y281417D01*
X159802Y281368D01*
X159788Y281354D01*
X159771Y281344D01*
X159704Y281265D01*
X159633Y281190D01*
X159624Y281172D01*
X159611Y281157D01*
X159572Y281061D01*
X159529Y280967D01*
X159527Y280947D01*
X159519Y280929D01*
X159501Y280762D01*
X159501Y279999D01*
X158738Y279999D01*
X158718Y279996D01*
X158699Y279998D01*
X158597Y279976D01*
X158495Y279959D01*
X158478Y279950D01*
X158458Y279946D01*
X158369Y279893D01*
X158278Y279844D01*
X158264Y279830D01*
X158247Y279820D01*
X158180Y279741D01*
X158109Y279666D01*
X158100Y279648D01*
X158087Y279633D01*
X158048Y279537D01*
X158005Y279443D01*
X158003Y279423D01*
X157995Y279405D01*
X157977Y279238D01*
X157977Y269959D01*
X152666Y269959D01*
X151992Y270140D01*
X151925Y270146D01*
X151859Y270163D01*
X151803Y270159D01*
X151747Y270164D01*
X151681Y270149D01*
X151614Y270144D01*
X151562Y270122D01*
X151507Y270109D01*
X151450Y270074D01*
X151388Y270048D01*
X151326Y269998D01*
X151298Y269981D01*
X151284Y269965D01*
X151257Y269943D01*
X150338Y269024D01*
X148775Y267461D01*
X141704Y267461D01*
X141684Y267458D01*
X141665Y267460D01*
X141563Y267438D01*
X141461Y267422D01*
X141444Y267412D01*
X141424Y267408D01*
X141335Y267355D01*
X141244Y267306D01*
X141230Y267292D01*
X141213Y267282D01*
X141146Y267203D01*
X141074Y267128D01*
X141066Y267110D01*
X141053Y267095D01*
X141014Y266999D01*
X140971Y266905D01*
X140969Y266885D01*
X140961Y266867D01*
X140943Y266700D01*
X140943Y264502D01*
X137834Y261393D01*
X133438Y261393D01*
G37*
%LPD*%
%LPC*%
G36*
X46984Y234839D02*
X46984Y234839D01*
X41412Y237147D01*
X37147Y241412D01*
X34839Y246984D01*
X34839Y253016D01*
X37147Y258588D01*
X41412Y262853D01*
X46984Y265161D01*
X53016Y265161D01*
X58588Y262853D01*
X62853Y258588D01*
X65161Y253016D01*
X65161Y246984D01*
X62853Y241412D01*
X58588Y237147D01*
X53016Y234839D01*
X46984Y234839D01*
G37*
%LPD*%
%LPC*%
G36*
X186984Y234839D02*
X186984Y234839D01*
X181412Y237147D01*
X177147Y241412D01*
X174839Y246984D01*
X174839Y253016D01*
X177147Y258588D01*
X181412Y262853D01*
X186984Y265161D01*
X193016Y265161D01*
X198588Y262853D01*
X202853Y258588D01*
X205161Y253016D01*
X205161Y246984D01*
X202853Y241412D01*
X198588Y237147D01*
X193016Y234839D01*
X186984Y234839D01*
G37*
%LPD*%
%LPC*%
G36*
X73368Y270975D02*
X73368Y270975D01*
X72475Y271868D01*
X72475Y277368D01*
X72473Y277384D01*
X72474Y277399D01*
X72474Y277402D01*
X72474Y277407D01*
X72452Y277509D01*
X72436Y277611D01*
X72426Y277628D01*
X72422Y277648D01*
X72369Y277737D01*
X72320Y277828D01*
X72306Y277842D01*
X72296Y277859D01*
X72217Y277926D01*
X72142Y277998D01*
X72124Y278006D01*
X72109Y278019D01*
X72013Y278058D01*
X71919Y278101D01*
X71899Y278103D01*
X71881Y278111D01*
X71714Y278129D01*
X58786Y278129D01*
X58766Y278126D01*
X58747Y278128D01*
X58645Y278106D01*
X58543Y278090D01*
X58526Y278080D01*
X58506Y278076D01*
X58417Y278023D01*
X58326Y277974D01*
X58312Y277960D01*
X58295Y277950D01*
X58228Y277871D01*
X58156Y277796D01*
X58148Y277778D01*
X58135Y277763D01*
X58096Y277667D01*
X58053Y277573D01*
X58051Y277553D01*
X58043Y277535D01*
X58025Y277368D01*
X58025Y273368D01*
X57132Y272475D01*
X43868Y272475D01*
X42975Y273368D01*
X42975Y286632D01*
X43868Y287525D01*
X57132Y287525D01*
X58025Y286632D01*
X58025Y283464D01*
X58028Y283444D01*
X58026Y283425D01*
X58048Y283323D01*
X58064Y283221D01*
X58074Y283204D01*
X58078Y283184D01*
X58131Y283095D01*
X58180Y283004D01*
X58194Y282990D01*
X58204Y282973D01*
X58283Y282906D01*
X58358Y282834D01*
X58376Y282826D01*
X58391Y282813D01*
X58487Y282774D01*
X58581Y282731D01*
X58601Y282729D01*
X58619Y282721D01*
X58786Y282703D01*
X71714Y282703D01*
X71734Y282706D01*
X71753Y282704D01*
X71855Y282726D01*
X71957Y282742D01*
X71974Y282752D01*
X71994Y282756D01*
X72083Y282809D01*
X72174Y282858D01*
X72188Y282872D01*
X72205Y282882D01*
X72272Y282961D01*
X72344Y283036D01*
X72352Y283054D01*
X72365Y283069D01*
X72404Y283165D01*
X72447Y283259D01*
X72449Y283279D01*
X72457Y283297D01*
X72475Y283464D01*
X72475Y288132D01*
X73368Y289025D01*
X87632Y289025D01*
X88525Y288132D01*
X88525Y271868D01*
X87632Y270975D01*
X73368Y270975D01*
G37*
%LPD*%
%LPC*%
G36*
X121523Y91523D02*
X121523Y91523D01*
X121523Y112041D01*
X139834Y112041D01*
X140481Y111868D01*
X141060Y111533D01*
X141533Y111060D01*
X141868Y110481D01*
X142041Y109834D01*
X142041Y91523D01*
X121523Y91523D01*
G37*
%LPD*%
%LPC*%
G36*
X97959Y91523D02*
X97959Y91523D01*
X97959Y109834D01*
X98132Y110481D01*
X98467Y111060D01*
X98940Y111533D01*
X99519Y111868D01*
X100166Y112041D01*
X118477Y112041D01*
X118477Y91523D01*
X97959Y91523D01*
G37*
%LPD*%
%LPC*%
G36*
X51023Y221523D02*
X51023Y221523D01*
X51023Y230041D01*
X56334Y230041D01*
X56981Y229868D01*
X57560Y229533D01*
X58033Y229060D01*
X58368Y228481D01*
X58541Y227834D01*
X58541Y221523D01*
X51023Y221523D01*
G37*
%LPD*%
%LPC*%
G36*
X161023Y269959D02*
X161023Y269959D01*
X161023Y278477D01*
X168541Y278477D01*
X168541Y272166D01*
X168368Y271519D01*
X168033Y270940D01*
X167560Y270467D01*
X166981Y270132D01*
X166334Y269959D01*
X161023Y269959D01*
G37*
%LPD*%
%LPC*%
G36*
X202666Y169959D02*
X202666Y169959D01*
X202019Y170132D01*
X201440Y170467D01*
X200967Y170940D01*
X200632Y171519D01*
X200459Y172166D01*
X200459Y178477D01*
X207977Y178477D01*
X207977Y169959D01*
X202666Y169959D01*
G37*
%LPD*%
%LPC*%
G36*
X138833Y181073D02*
X138833Y181073D01*
X138833Y183186D01*
X139006Y183833D01*
X139341Y184412D01*
X139814Y184885D01*
X140393Y185220D01*
X141040Y185393D01*
X150011Y185393D01*
X150011Y181073D01*
X138833Y181073D01*
G37*
%LPD*%
%LPC*%
G36*
X153057Y173707D02*
X153057Y173707D01*
X153057Y178027D01*
X164235Y178027D01*
X164235Y175914D01*
X164062Y175267D01*
X163727Y174688D01*
X163254Y174215D01*
X162675Y173880D01*
X162028Y173707D01*
X153057Y173707D01*
G37*
%LPD*%
%LPC*%
G36*
X141040Y173707D02*
X141040Y173707D01*
X140393Y173880D01*
X139814Y174215D01*
X139341Y174688D01*
X139006Y175267D01*
X138833Y175914D01*
X138833Y178027D01*
X150011Y178027D01*
X150011Y173707D01*
X141040Y173707D01*
G37*
%LPD*%
%LPC*%
G36*
X151533Y179549D02*
X151533Y179549D01*
X151533Y179551D01*
X151535Y179551D01*
X151535Y179549D01*
X151533Y179549D01*
G37*
%LPD*%
D10*
X120000Y90000D03*
D11*
X202000Y90000D03*
X38000Y90000D03*
D12*
X190500Y180000D03*
X209500Y180000D03*
X30500Y220000D03*
X49500Y220000D03*
D13*
X151534Y179550D03*
X90066Y179550D03*
X151534Y192250D03*
X151534Y204950D03*
X90066Y192250D03*
X90066Y204950D03*
X151534Y217650D03*
X90066Y217650D03*
D14*
X50500Y280000D03*
X29500Y280000D03*
X210500Y280000D03*
X189500Y280000D03*
D12*
X80500Y280000D03*
X99500Y280000D03*
X140500Y280000D03*
X159500Y280000D03*
X30500Y180000D03*
X49500Y180000D03*
X190500Y220000D03*
X209500Y220000D03*
D15*
X188976Y280416D02*
X176784Y280416D01*
X166116Y291084D01*
X152400Y291084D01*
X149352Y288036D01*
X149352Y271272D01*
X147828Y269748D01*
X135636Y269748D02*
X109728Y269748D01*
X135636Y269748D02*
X147828Y269748D01*
X109728Y269748D02*
X100584Y278892D01*
X188976Y280416D02*
X189500Y280000D01*
X100584Y278892D02*
X99500Y280000D01*
X135636Y205740D02*
X150876Y205740D01*
X135636Y266700D02*
X135636Y269748D01*
X150876Y205740D02*
X151534Y204950D01*
D16*
X135636Y205740D03*
X135636Y266700D03*
D15*
X205740Y280416D02*
X210312Y280416D01*
X205740Y280416D02*
X192024Y294132D01*
X150876Y294132D01*
X141732Y284988D01*
X141732Y280416D01*
X210312Y280416D02*
X210500Y280000D01*
X141732Y280416D02*
X140500Y280000D01*
X71628Y220980D02*
X50292Y220980D01*
X71628Y220980D02*
X111252Y260604D01*
X143256Y260604D01*
X158496Y275844D02*
X158496Y278892D01*
X50292Y220980D02*
X49500Y220000D01*
X158496Y278892D02*
X159500Y280000D01*
X208788Y179832D02*
X209500Y180000D01*
X152400Y178308D02*
X151534Y179550D01*
X21336Y233172D02*
X18288Y230124D01*
X18288Y173736D01*
X100584Y91440D02*
X118872Y91440D01*
X120000Y90000D01*
D16*
X60000Y150000D03*
X180000Y150000D03*
X40000Y60000D03*
X200000Y60000D03*
X170000Y240000D03*
X70000Y240000D03*
D15*
X79248Y280416D02*
X51816Y280416D01*
X50500Y280000D01*
X79248Y280416D02*
X80500Y280000D01*
X74676Y181356D02*
X50292Y181356D01*
X74676Y181356D02*
X85344Y192024D01*
X89916Y192024D01*
X50292Y181356D02*
X49500Y180000D01*
X89916Y192024D02*
X90066Y192250D01*
X170688Y219456D02*
X190500Y219456D01*
X170688Y219456D02*
X163068Y211836D01*
X79248Y211836D01*
X76200Y208788D01*
X76200Y201168D01*
X85344Y192024D01*
X190500Y219456D02*
X190500Y220000D01*
X90066Y192250D02*
X85344Y192024D01*
X167640Y181356D02*
X190500Y181356D01*
X167640Y181356D02*
X156972Y192024D01*
X152400Y192024D01*
X151534Y192250D01*
X208788Y199644D02*
X208788Y219456D01*
X208788Y199644D02*
X190500Y181356D01*
X208788Y219456D02*
X209500Y220000D01*
X190500Y181356D02*
X190500Y180000D01*
X128016Y204216D02*
X91440Y204216D01*
X128016Y204216D02*
X138684Y193548D01*
X150876Y193548D01*
X91440Y204216D02*
X90066Y204950D01*
X150876Y193548D02*
X151534Y192250D01*
X32004Y214884D02*
X32004Y219456D01*
X32004Y214884D02*
X41148Y205740D01*
X68580Y205740D01*
X79248Y216408D01*
X89916Y216408D01*
X32004Y219456D02*
X30500Y220000D01*
X89916Y216408D02*
X90066Y217650D01*
X28956Y245364D02*
X28956Y278892D01*
X28956Y245364D02*
X15240Y231648D01*
X15240Y112776D01*
X36576Y91440D01*
X28956Y278892D02*
X29500Y280000D01*
X36576Y91440D02*
X38000Y90000D01*
X42672Y169164D02*
X32004Y179832D01*
X42672Y169164D02*
X80772Y169164D01*
X89916Y178308D01*
X32004Y179832D02*
X30500Y180000D01*
X89916Y178308D02*
X90066Y179550D01*
X152400Y217932D02*
X164592Y217932D01*
X176784Y230124D01*
X217932Y230124D01*
X219456Y228600D01*
X219456Y108204D01*
X202692Y91440D01*
X152400Y217932D02*
X151534Y217650D01*
X202692Y91440D02*
X202000Y90000D01*
X30480Y181356D02*
X30480Y202692D01*
X21336Y211836D01*
X21336Y228600D01*
X22860Y230124D01*
X38100Y230124D01*
X39624Y228600D01*
X39624Y211836D01*
X42672Y208788D01*
X64008Y208788D01*
X79248Y224028D01*
X144780Y224028D01*
X150876Y217932D01*
X30480Y181356D02*
X30500Y180000D01*
X150876Y217932D02*
X151534Y217650D01*
X77724Y89916D02*
X38100Y89916D01*
X77724Y89916D02*
X100584Y67056D01*
X178308Y67056D01*
X201168Y89916D01*
X38100Y89916D02*
X38000Y90000D01*
X201168Y89916D02*
X202000Y90000D01*
M02*
