G04 EAGLE Gerber RS-274X export*
G75*
%MOMM*%
%FSLAX34Y34*%
%LPD*%
%IN*%
%IPPOS*%
%AMOC8*
5,1,8,0,0,1.08239X$1,22.5*%
G01*
%ADD10C,0.254000*%


D10*
X0Y0D02*
X240000Y0D01*
X240000Y320000D01*
X0Y320000D01*
X0Y0D01*
X55000Y249719D02*
X54937Y249161D01*
X54812Y248614D01*
X54627Y248084D01*
X54383Y247578D01*
X54084Y247102D01*
X53734Y246663D01*
X53337Y246266D01*
X52898Y245916D01*
X52422Y245617D01*
X51916Y245373D01*
X51386Y245188D01*
X50839Y245063D01*
X50281Y245000D01*
X49719Y245000D01*
X49161Y245063D01*
X48614Y245188D01*
X48084Y245373D01*
X47578Y245617D01*
X47102Y245916D01*
X46663Y246266D01*
X46266Y246663D01*
X45916Y247102D01*
X45617Y247578D01*
X45373Y248084D01*
X45188Y248614D01*
X45063Y249161D01*
X45000Y249719D01*
X45000Y250281D01*
X45063Y250839D01*
X45188Y251386D01*
X45373Y251916D01*
X45617Y252422D01*
X45916Y252898D01*
X46266Y253337D01*
X46663Y253734D01*
X47102Y254084D01*
X47578Y254383D01*
X48084Y254627D01*
X48614Y254812D01*
X49161Y254937D01*
X49719Y255000D01*
X50281Y255000D01*
X50839Y254937D01*
X51386Y254812D01*
X51916Y254627D01*
X52422Y254383D01*
X52898Y254084D01*
X53337Y253734D01*
X53734Y253337D01*
X54084Y252898D01*
X54383Y252422D01*
X54627Y251916D01*
X54812Y251386D01*
X54937Y250839D01*
X55000Y250281D01*
X55000Y249719D01*
X195000Y249719D02*
X194937Y249161D01*
X194812Y248614D01*
X194627Y248084D01*
X194383Y247578D01*
X194084Y247102D01*
X193734Y246663D01*
X193337Y246266D01*
X192898Y245916D01*
X192422Y245617D01*
X191916Y245373D01*
X191386Y245188D01*
X190839Y245063D01*
X190281Y245000D01*
X189719Y245000D01*
X189161Y245063D01*
X188614Y245188D01*
X188084Y245373D01*
X187578Y245617D01*
X187102Y245916D01*
X186663Y246266D01*
X186266Y246663D01*
X185916Y247102D01*
X185617Y247578D01*
X185373Y248084D01*
X185188Y248614D01*
X185063Y249161D01*
X185000Y249719D01*
X185000Y250281D01*
X185063Y250839D01*
X185188Y251386D01*
X185373Y251916D01*
X185617Y252422D01*
X185916Y252898D01*
X186266Y253337D01*
X186663Y253734D01*
X187102Y254084D01*
X187578Y254383D01*
X188084Y254627D01*
X188614Y254812D01*
X189161Y254937D01*
X189719Y255000D01*
X190281Y255000D01*
X190839Y254937D01*
X191386Y254812D01*
X191916Y254627D01*
X192422Y254383D01*
X192898Y254084D01*
X193337Y253734D01*
X193734Y253337D01*
X194084Y252898D01*
X194383Y252422D01*
X194627Y251916D01*
X194812Y251386D01*
X194937Y250839D01*
X195000Y250281D01*
X195000Y249719D01*
M02*
